<?xml version="1.0" encoding="utf-8"?>
<!-- Generator: Adobe Illustrator 25.3.0, SVG Export Plug-In . SVG Version: 6.00 Build 0)  -->
<svg version="1.1" id="Capa_1" xmlns="http://www.w3.org/2000/svg" xmlns:xlink="http://www.w3.org/1999/xlink" x="0px" y="0px"
	 viewBox="0 0 50 50" style="enable-background:new 0 0 50 50;" xml:space="preserve">
<style type="text/css">
	.st0{fill:#595348;}
</style>
<g>
	<g>
		<g>
			<path class="st0" d="M5.5,36.1V33c-1.8,0-3.7-0.6-4.9-1.4l0.7-2.1c1.2,0.7,2.7,1.4,4.5,1.4c2.2,0,3.8-1.3,3.8-3.1
				C9.8,26,8.5,25,6.2,24c-3.3-1.3-5.3-2.7-5.3-5.5c0-2.6,1.9-4.6,4.7-5.1v-3.2h2v3.1c1.9,0.1,3.2,0.5,4.1,1.1l-0.8,2.1
				c-0.6-0.4-2-1.1-4-1.1c-2.4,0-3.4,1.5-3.4,2.7c0,1.7,1.2,2.4,3.9,3.6c3.3,1.4,5,3,5,5.8c0,2.5-1.8,4.9-5,5.4v3.3H5.5V36.1z"/>
		</g>
	</g>
</g>
<g transform="translate(0.000000,1280.000000) scale(0.100000,-0.100000)">
	<g>
		<path class="st0" d="M403.9,12678.6c0,0-1.5-0.2-3.3-0.3c-12.9-0.8-23.7-3.3-35.6-7.9c-4-1.6-11.8-5.4-15.5-7.6
			c-22.1-13-39.5-32.3-49.7-55.5c-1.9-4.2-3.8-9.7-5.6-15.5l-0.2-0.8l-12.2-0.1l-12.2-0.1l-4.2-9.4c-2.3-5.2-4.2-9.5-4.2-9.5
			c0-0.1,6.6-0.1,14.7-0.1c8.1,0,14.8-0.1,14.8-0.1c0.1-0.1,0-0.6-0.1-1.3c-0.3-1.9-0.4-11.6-0.2-14.6c0.1-1.5,0.2-3,0.2-3.2v-0.4
			l-10.6-0.1l-10.6-0.1l-4.1-9.2c-2.2-5.1-4.1-9.4-4.2-9.5c-0.1-0.3,0.7-0.3,16.2-0.3h16.4l0.2-0.4c0.1-0.2,0.5-1.5,0.9-2.8
			c3.7-12.5,10.2-25.3,18.4-36.3c20.5-27.3,51.1-44.7,83.8-47.6c1.8-0.1,4.2-0.3,5.4-0.4c2.7-0.2,6.2-0.2,8.9,0
			c1.2,0.1,3.6,0.3,5.4,0.4c24.1,2.1,47.5,12.1,66.2,28.4l1.9,1.7v13.6c0,7.5-0.1,13.6-0.1,13.6c-0.1,0-1.2-1.2-2.3-2.7
			c-2.6-3.3-9.7-10.3-12.9-13c-10.8-8.9-22.4-15.1-35.1-18.9c-5.7-1.7-11.2-2.7-17.8-3.5c-3.6-0.4-15-0.4-18.5-0.1
			c-12.8,1.4-23,4.3-33.9,9.6c-4.3,2.1-7.8,4.1-11.3,6.4c-14.9,10-27,24.1-34.4,40.2c-2,4.4-4.5,11.1-4.3,11.6
			c0.1,0.2,8.2,0.3,65.9,0.3h65.8l4.1,9.4c2.3,5.2,4.1,9.5,4.1,9.6c0,0.2-14.6,0.2-72.1,0.2h-72.1l-0.2,0.4
			c-0.7,1.9-0.7,16.9,0,18.8l0.2,0.4h76.6l76.6,0.1l4.1,9.3c2.3,5.2,4.1,9.4,4.1,9.6c0,0.2-15.8,0.2-78.6,0.2
			c-70.5,0-78.6,0-78.7,0.3c-0.1,0.3,1.5,5,2.7,8.1c7.5,17.8,20.5,33.4,36.5,44c12.2,8,25.9,13.2,39.9,15.1c5.4,0.7,7,0.8,13.9,0.8
			c8.5,0,13.4-0.4,20.5-1.9c15.5-3.2,28.8-9.7,41.5-20.2c4.2-3.5,11.5-11.2,14.8-15.4c0.4-0.5,0.8-0.9,0.9-0.9
			c0.1,0,2.1,4.2,4.3,9.3c3,6.5,4.1,9.3,4,9.5c-0.3,0.5-7.2,7.3-9.4,9.3c-19.3,17-42.3,27-66.9,29.1c-1.8,0.1-4.2,0.3-5.4,0.4
			C409.7,12678.7,404,12678.8,403.9,12678.6z"/>
	</g>
</g>
<path class="st0" d="M32.1,5c0-0.4-0.3-0.7-0.6-0.8c-0.3-0.1-0.7-0.1-1.1,0.1l-0.7,0.5c-5.4-4.1-13.1-3.7-18,1.2
	c-0.4,0.4-0.4,1.1,0,1.5s1.1,0.4,1.5,0c4-4,10.2-4.4,14.8-1.4l-1.1,0.8c-0.3,0.2-0.4,0.6-0.4,0.9c0,0.4,0.3,0.7,0.6,0.8l4.2,1.7
	c0.1,0.1,0.3,0.1,0.4,0.1c0.2,0,0.4-0.1,0.6-0.2c0.3-0.2,0.4-0.6,0.4-0.9L32.1,5z"/>
<path class="st0" d="M32.5,43.2c-0.4-0.4-1.1-0.4-1.5,0c-2.2,2.2-5.1,3.4-8.2,3.4c-2.4,0-4.6-0.7-6.6-2.1l1.1-0.8
	c0.3-0.2,0.4-0.6,0.4-0.9c0-0.4-0.3-0.7-0.6-0.8l-4.2-1.7c-0.3-0.1-0.7-0.1-1.1,0.1c-0.3,0.2-0.4,0.6-0.4,0.9l0.6,4.4
	c0,0.4,0.3,0.7,0.6,0.8c0.1,0.1,0.3,0.1,0.4,0.1c0.2,0,0.4-0.1,0.6-0.2l0.7-0.5c2.4,1.8,5.3,2.8,8.3,2.8c3.7,0,7.1-1.5,9.7-4
	C32.9,44.3,32.9,43.5,32.5,43.2z"/>
</svg>
