<?xml version="1.0" encoding="utf-8"?>
<!-- Generator: Adobe Illustrator 25.3.0, SVG Export Plug-In . SVG Version: 6.00 Build 0)  -->
<svg version="1.1" id="Capa_1" xmlns="http://www.w3.org/2000/svg" xmlns:xlink="http://www.w3.org/1999/xlink" x="0px" y="0px"
	 viewBox="0 0 8192 8192" style="enable-background:new 0 0 8192 8192;" xml:space="preserve">
<style type="text/css">
	.st0{fill:#595348;}
</style>
<g>
	<path d="M6413,6403.7h-5.7c-1.3,0-2.3,1-2.3,2.3v9.6c0,1.3,1,2.3,2.3,2.3h4.9c-0.2-0.4-0.3-0.8-0.3-1.3c0-1.8,1.5-3.2,3.2-3.2
		c0.1,0,0.1,0,0.1,0v-7.3C6415.3,6404.7,6414.3,6403.7,6413,6403.7z M6410.8,6411.8h-4.4c-0.3,0-0.7-0.3-0.7-0.7
		c0-0.3,0.3-0.7,0.7-0.7h4.4c0.3,0,0.7,0.3,0.7,0.7C6411.4,6411.5,6411.1,6411.8,6410.8,6411.8z M6414,6409.7h-7.6
		c-0.3,0-0.7-0.3-0.7-0.7c0-0.3,0.3-0.7,0.7-0.7h7.6c0.3,0,0.7,0.3,0.7,0.7C6414.7,6409.4,6414.4,6409.7,6414,6409.7z M6414,6407.8
		h-7.6c-0.3,0-0.7-0.3-0.7-0.7s0.3-0.7,0.7-0.7h7.6c0.3,0,0.7,0.3,0.7,0.7S6414.4,6407.8,6414,6407.8z"/>
	<path d="M6415.5,6413.7c-0.1,0-0.1,0-0.1,0c-1.6,0-2.8,1.3-2.8,2.8c0,0.4,0.1,0.7,0.2,1.1c0.4,1,1.5,1.8,2.7,1.8
		c1.6,0,2.8-1.3,2.8-2.8C6418.3,6415,6417.1,6413.8,6415.5,6413.7z M6416.8,6417.4c-0.1,0.1-0.2,0.1-0.3,0.1l-1.3-0.6
		c-0.1-0.1-0.1-0.2-0.1-0.3l0.6-1.3c0.1-0.1,0.2-0.1,0.3-0.1c0.1,0.1,0.1,0.2,0.1,0.3l-0.5,1l1,0.5
		C6416.8,6417.2,6416.8,6417.3,6416.8,6417.4z"/>
</g>
<g>
	<path class="st0" d="M4792.5,146.8H1922.1c-630.5,0-1144.8,514.4-1144.8,1144.8v4778.5c0,630.5,514.4,1144.8,1144.8,1144.8h2455.6
		c-83-199.1-132.7-398.2-132.7-613.9c0-896,730-1626,1626-1626c16.6,0,33.2,0,49.7,0V1308.2C5920.8,677.7,5423,146.8,4792.5,146.8z
		 M3647.6,4211.9H1440.9c-182.5,0-331.8-149.3-331.8-331.8c0-182.5,149.3-331.8,331.8-331.8h2206.7c182.5,0,331.8,149.3,331.8,331.8
		C3979.5,4062.5,3813.5,4211.9,3647.6,4211.9z M5257.1,3166.5H1440.9c-182.5,0-331.8-149.3-331.8-331.8
		c0-182.5,149.3-331.8,331.8-331.8h3816.2c182.5,0,331.8,149.3,331.8,331.8C5605.5,3017.2,5456.2,3166.5,5257.1,3166.5z
		 M5257.1,2204.2H1440.9c-182.5,0-331.8-149.3-331.8-331.8s149.3-331.8,331.8-331.8h3816.2c182.5,0,331.8,149.3,331.8,331.8
		S5456.2,2204.2,5257.1,2204.2z"/>
	<path class="st0" d="M6020.3,5174.2c-16.6,0-33.2,0-49.7,0c-796.4,0-1426.9,647.1-1426.9,1426.9c0,199.1,33.2,365.1,116.2,547.5
		c215.7,514.4,730,896,1327.4,896c796.4,0,1426.9-647.1,1426.9-1426.9C7414.1,5821.3,6800.1,5190.8,6020.3,5174.2z M6667.4,6999.3
		c-16.6,49.7-83,66.4-132.7,49.7L5920.8,6767c-49.7-16.6-66.4-83-49.7-132.7l282.1-613.9c16.6-49.7,83-66.4,132.7-49.7
		s66.4,83,49.7,132.7l-248.9,514.4l514.4,248.9C6667.4,6883.2,6684,6949.6,6667.4,6999.3z"/>
</g>
</svg>
