<?xml version="1.0" encoding="utf-8"?>
<!-- Generator: Adobe Illustrator 25.3.0, SVG Export Plug-In . SVG Version: 6.00 Build 0)  -->
<svg version="1.1" id="Capa_1" xmlns="http://www.w3.org/2000/svg" xmlns:xlink="http://www.w3.org/1999/xlink" x="0px" y="0px"
	 viewBox="0 0 276.1 223" style="enable-background:new 0 0 276.1 223;" xml:space="preserve">
<style type="text/css">
	.st0{clip-path:url(#SVGID_2_);}
	.st1{fill: #F2E3D0;}

</style>
<g>
	<defs>
		<polygon id="SVGID_1_" points="248.6,192.2 250.7,-29.2 30,-29.2 30,179.4 -10.1,179.4 -10.1,231.4 275.4,231.4 275.3,192.2 		"/>
	</defs>
	<clipPath id="SVGID_2_">
		<use xlink:href="#SVGID_1_"  style="overflow:visible;"/>
	</clipPath>
	<g class="st0">
		<path class="st1" d="M143.4,0c0,4.7,2.4,7.1,7,7.5c0.9,0.2,1.8,0.5,2.6,1c3.3,1.4,4.6,3.8,3.8,7.2c-0.6,2.4-1.3,4.8-2.1,7.2
			c-1.2,3.3-4,4.2-7.5,3c-2.9-1-5.9-1.8-8.9-2.2c-1.5-0.2-3.2,0.5-4.8,0.8l-0.2,1.1c1.4,1,2.8,1.8,4.2,2.6c3.4,1.6,6.9,2.9,10.2,4.7
			c7.6,4.1,11.9,10.5,11.9,19.3c-0.2,8.3-5.4,15.7-13.1,18.7c-1.7,0.3-2.8,2-2.5,3.7c0.1,1.2,0,2.3-0.3,3.5c-0.3,2.3-2.1,4-4.3,4.3
			c-2.7,0.3-5.5,0.3-8.2,0c-2.8-0.3-4.4-2.7-4.4-6.1c0-2.2-0.6-3.2-2.9-3.7c-2.9-0.7-5.7-1.7-8.4-3c-3.2-1.6-4.1-3.5-3.3-7
			c0.6-2.8,1.5-5.6,2.5-8.3c1-2.6,3.8-3.3,6.8-2.2c2.9,1.1,5.9,2.1,9,2.9c1.7,0.3,3.5,0.3,5.2,0c1-0.2,2.5-1.1,2.6-1.8
			c-0.1-1.2-0.7-2.2-1.7-2.9c-2.1-1.2-4.6-2-6.8-3.1c-3.7-2-7.7-3.7-10.9-6.4c-10.3-8.4-8-25.3,4.2-31.4c3.4-1.7,5.1-3.4,4.6-7.2
			c0-0.7,0.2-1.3,0.4-1.9L143.4,0z M120.3,59.5c-1.4,4-1.4,4.2,2.5,5.4c0.8,0.3,1.6,0.5,2.4,0.6c6.8,1,7.1,1.4,8.4,8.1
			c0.1,0.6,1.1,1.1,1.7,1.7c0.4-0.6,1.3-1.2,1.3-1.8c-0.3-5,2-7.8,6.8-9c1-0.3,1.9-0.7,2.7-1.3c3.1-2,5.4-4.7,6.1-8.5
			c1.4-7.7-2-13.3-9.8-16.8c-4.4-1.9-8.7-4.1-12.8-6.6c-2.7-1.6-4-4.8-3.1-7.9c0.9-3.5,3.2-6.2,6.9-6.4c4.4-0.1,8.8,0.2,13.1,0.9
			c1.4,0.2,2.4,0.4,2.9-1.1c0.6-1,0.2-2.2-0.7-2.7c-0.3-0.2-0.6-0.3-0.9-0.3c-1.1-0.3-2.3-0.6-3.4-0.8c-5.2-1-6.8-2.2-7.1-7.3
			c0-0.6-0.8-1-1.1-1.6c-0.5,0.5-0.9,0.9-1.3,1.5c-0.2,0.2-0.1,0.7-0.1,1c0,3.7-1.6,6.2-5.3,7.2c-0.6,0.2-1.3,0.4-1.8,0.8
			c-9.4,4.6-10.9,15.7-2.8,21.7c1.8,1.2,3.7,2.3,5.6,3.1c3.2,1.5,6.6,2.7,9.8,4.4c3.6,2,6,5.1,5.6,9.5c-0.3,3.9-3.2,7.1-7,7.9
			c-2.8,0.7-5.7,0.9-8.6,0.5C126.7,61.5,123.6,60.4,120.3,59.5z"/>
		<path class="st1" d="M88.9,90.5c-4.5,4.7-8.7,9.3-13.1,13.7c-5.2,5.3-10.6,10.6-15.8,15.9c-4.8,4.7-11.3,4.7-16,0
			c-5.7-5.7-6.1-11.7-0.9-16.8C55.6,90.8,68,78.4,80.5,66c6.1-6,11.6-6,17.8,0.1c11.5,11.4,22.9,22.8,34.3,34.2c2.5,2.5,2.5,2.5,5,0
			c19.9-19.8,39.7-39.5,59.5-59.3c0.5-0.5,1-1.1,1.9-2.2c-2.6-2.3-5-4.7-7.6-7s-3.4-5.1-2-8.3c1.3-3,3.7-3.9,6.8-4.1
			c10.6-0.5,21.1-1.1,31.7-1.7c7.1-0.4,10.2,2.7,9.9,9.8c-0.5,9.7-1,19.5-1.4,29.2c-0.1,3.1-0.8,6-3.5,7.9c-3,2.1-5.7,2.1-8.4-0.2
			c-2.3-2-4.4-4.1-6.4-6.3c-1.6-1.8-2.8-1.7-4.4,0c-23.1,23.1-46.2,46.2-69.3,69.3c-6.2,6.2-11.9,6.3-18.1,0.1L91.7,92.9
			C91,92.4,90.3,91.8,88.9,90.5z M228.7,58.9c0.2-1,0.4-1.9,0.5-2.9c0.4-9.2,0.9-18.5,1.3-27.7c0.1-3.3,0-3.5-3.3-3.3
			c-9.3,0.4-18.7,0.8-28,1.2c-0.9,0.1-1.8,0.3-2.7,0.5c0.8,1,1.2,1.6,1.7,2.1c2.3,2.3,4.6,4.6,6.9,6.9c2.9,3,3,4.3,0,7.3
			c-22.2,22.1-44.4,44.2-66.6,66.3c-2.7,2.7-4.2,2.6-7-0.1l-39-38.7c-2.5-2.4-4.1-2.5-6.6,0c-12.5,12.4-25,24.9-37.5,37.4
			c-2.5,2.4-2.4,4.6-0.1,6.9s4.5,2.5,7.1-0.1c10.1-10,20.3-20.1,30.3-30.2c2.7-2.7,4.6-2.7,7.2,0c12.6,12.6,25.2,25.2,37.8,37.8
			c3.6,3.6,5,3.6,8.6,0c24.2-24.1,48.3-48.3,72.5-72.4c2.9-2.9,4.5-2.9,7.4-0.1S225.3,55.5,228.7,58.9z"/>
		<path class="st1" d="M218,110.4v42.2c0,8-4.3,12.3-12.4,12.3h-13.8c-6.5-0.1-11.3-4.7-11.3-11.2c-0.1-19.1-0.1-38.2,0-57.2
			c0.1-1.7,0.8-3.3,2-4.6c9.1-9.3,18.4-18.5,27.7-27.8c0.6-0.6,1.2-1.2,1.8-1.7c1.4-1.3,3.5-1.2,4.8,0.2c0.5,0.5,0.8,1.1,0.9,1.8
			c0.2,1.1,0.3,2.3,0.2,3.5C218,82.1,218,96.3,218,110.4z M210.9,74c-1.1,0.9-1.7,1.3-2.2,1.8c-6.6,6.5-13.1,13-19.6,19.6
			c-0.8,0.9-1.2,2.1-1.2,3.3c-0.1,18.2-0.1,36.5,0,54.7c0,3.3,1.1,4.4,4.4,4.4h13c4.8,0,5.9-1.1,5.9-5.9V77.3
			C211,76.4,210.9,75.5,210.9,74z"/>
		<path class="st1" d="M92.1,127.7v25.7c0,7.2-4.4,11.6-11.7,11.6H65.9c-6.5-0.1-11-4.5-11-11v-25c0-2.3,1-3.5,2.7-4.9
			c4.4-3.6,8.4-7.5,12.5-11.4c5-4.8,9.8-9.7,14.7-14.6c1.5-1.5,3.1-2.8,5.2-1.9s2.1,3,2.1,4.9L92.1,127.7z M84.9,108.1
			c-1.2,1.1-1.9,1.7-2.6,2.3c-6.4,6.3-12.9,12.5-19.3,18.8c-0.7,0.7-1.1,1.6-1.1,2.6c-0.1,7.2-0.1,14.5,0,21.7
			c0,3.2,1.2,4.3,4.4,4.4h13c4.8,0,5.7-0.9,5.7-5.6v-40.4C85.1,111,85,110,84.9,108.1z"/>
		<path class="st1" d="M176,134.2v19.5c-0.1,6.9-4.5,11.3-11.5,11.3h-15.2c-5.7,0-10.4-4.5-10.5-10.2c-0.1-6.1-0.1-12.2,0-18.2
			c0.1-1.3,0.6-2.5,1.5-3.5c5.7-5.5,11.6-10.9,17.4-16.4c3.3-3.2,6.5-6.5,9.8-9.7c2.3-2.2,4.3-2.3,6,0.3c1.4,2,2.2,4.4,2.4,6.8
			C176.2,121,176,127.6,176,134.2z M169.2,115.6c-1.2,1-2,1.6-2.7,2.3c-6.6,6.5-13.2,12.9-19.8,19.5c-0.6,0.7-0.9,1.5-0.9,2.4
			c-0.1,4.7-0.1,9.3,0,14c0,3.2,1.1,4.2,4.3,4.2h14.5c3,0,4.6-1.4,4.6-4.4C169.3,141.1,169.2,128.7,169.2,115.6L169.2,115.6z"/>
		<path class="st1" d="M96.8,134v-20c0-1.4,0.3-2.8,0.8-4.1c1.4-3.3,4.1-3.8,6.7-1.3c6.6,6.5,13,13.1,19.7,19.5
			c2.2,2.1,5.2,3.6,7.6,5.6c1.1,0.9,2.3,2.4,2.4,3.7c0.2,6,0.2,12,0,18c-0.4,5.3-4.7,9.5-10,9.7c-5.7,0.1-11.3,0.1-17,0
			c-5.5-0.1-9.9-4.5-10.1-10C96.6,148,96.7,141,96.8,134L96.8,134z M104.3,118.8c-0.2,0.8-0.3,1.5-0.4,2.3v32.7c0,3,1.2,4.1,4.4,4.1
			h14c3.5,0,4.9-1.4,5-5c0.1-3.1-0.1-6.2,0.1-9.2c0.2-2.7-0.3-4.8-3.1-6c-1.6-0.9-3-2.1-4.2-3.5c-4.6-4.5-9.1-9-13.6-13.5
			C105.8,120.1,105.2,119.6,104.3,118.8L104.3,118.8z"/>
		<path class="st1" d="M8.5,207.5c-0.3,4.1-0.8,8.3-0.9,12.4c-0.1,2.1-0.9,2.9-2.9,2.7h-1c-3.7,0-3.8-0.1-3.5-3.8
			c0.7-7.5,1.3-15.1,2-22.6c0.3-3.5,0.4-3.6,3.9-3.6c4.5,0,4.4,0,6,4.3c1.3,3.8,3,7.5,4.9,11.1c1.7-4.2,3.5-8.4,4.9-12.7
			c0.7-2.1,1.7-2.9,3.8-2.7h1c4.2,0,4.2,0,4.5,4.2c0.6,7.6,1.3,15.1,2,22.6c0.3,3.1,0.2,3.1-2.8,3.2c-4.4,0-4.5-0.1-4.8-4.6
			c-0.2-3.5-0.7-6.9-1.5-10.2c-1.1,3.2-2.2,6.3-3.3,9.5c-0.4,1.2-0.9,2.4-1.3,3.5c-0.5,1.5-1.7,1.8-3.2,1.8s-2.2-0.9-2.6-2.2
			c-1.5-4.4-3-8.8-4.6-13.1L8.5,207.5z"/>
		<path class="st1" d="M79.8,206.1c0,4.9-0.1,9.2,0,13.4c0.1,2.3-0.7,3.5-3.2,3.2c-0.7-0.1-1.5-0.1-2.2,0c-1.3,0.1-2-0.5-2-1.9
			c0-8.7,0-17.5,0.1-26.2c0-0.7,1.2-1.7,1.9-1.9c3.4-0.7,5.9,0.4,7.7,3.7c2.4,4.4,5.3,8.4,8.4,13.2c0.2-1.3,0.3-1.9,0.3-2.5v-10
			c0-4.3,1.8-5.6,6-4.3c0.7,0.4,1.1,1,1.2,1.8c0.1,8.7,0.1,17.5,0,26.2c-0.2,0.9-0.9,1.5-1.8,1.8c-3.3,0.5-6,0.1-7.8-3.5
			c-2-3.9-4.7-7.5-7.1-11.2C80.9,207.3,80.4,206.6,79.8,206.1z"/>
		<path class="st1" d="M51.8,222.7c-9.2,0-15-5.9-15-15.1c0-8.7,6.7-15.7,15.1-15.6c8.4,0.1,15.2,7,15.1,15.4c0,0,0,0,0,0l0,0v0.1
			C66.8,216.9,61.2,222.7,51.8,222.7z M59.3,207.7c0.1-4.8-3-8.6-7.1-8.6c-2.6-0.2-5,1.2-6.2,3.5c-1.7,3-1.8,6.5-0.3,9.6
			c1.5,2.8,4.7,4.3,7.8,3.6C57,215,59.2,211.8,59.3,207.7z"/>
		<path class="st1" d="M237.8,213.2v7c0,1.8-0.8,2.5-2.6,2.5c-4.9,0.1-4.9,0.2-4.9-4.6c0-7.5,0.1-15,0-22.5c0-2.3,0.7-3.2,3-3
			c2.8,0.2,5.7,0,8.5,0.1c4.5,0.1,7.9,2.5,9,6.2c1.2,4.1-0.5,8.6-4.2,10.8l-1.1,0.7l9.3,11.6c-5,1.8-8.5,0.9-11.2-2.6
			c-1.2-1.6-2.4-3.2-3.7-4.7c-0.5-0.6-1-1.1-1.5-1.6L237.8,213.2z M239.5,197.6c-0.7,0.8-1.2,1.7-1.7,2.7c-0.2,0.8-0.2,1.6,0,2.5
			c0.1,0.9,0.4,2.5,0.8,2.5c1,0.2,2.6,0,3.2-0.7c0.9-1,1.3-2.3,1.2-3.6C242.6,199.9,241.1,199.1,239.5,197.6z"/>
		<path class="st1" d="M222.3,222.6c-2.6,0.8-4-0.9-4.4-3.5c-0.4-2-1.4-2.8-3.5-2.6c-2,0.1-4,0.1-6,0c-1.4-0.2-2.6,0.7-2.9,2.1
			c-1.2,3.7-4.4,5.3-8,3.9c-0.4-0.1-0.8-1.4-0.6-1.9c2.1-5.6,4.4-11.1,6.6-16.7c1.1-2.9,2.3-5.7,3.4-8.6c0.7-1.8,1.5-3.1,3.7-2.9
			s4.3-0.4,5.4,2.6c2.9,7.9,6.3,15.7,9.4,23.6C227.1,222.6,227,222.6,222.3,222.6z M212,204l-0.9,0.1c-0.7,1.9-1.4,3.8-2.1,5.9h5.2
			C213.4,207.7,212.8,205.8,212,204z"/>
		<path class="st1" d="M258.5,207.6c0-4.1,0.1-8.2,0-12.2c0-2.1,0.8-2.8,2.8-2.8c4.2,0.1,8.3,0.1,12.5,0c2.5-0.1,2.4,1.4,2.3,3.1
			s0.4,3.5-2.3,3.4c-1.8-0.1-3.7,0.1-5.5,0s-2.4,0.9-2.4,2.6s0.6,2.6,2.5,2.5s3.5,0,5.2,0c2.3,0,2.4,1.6,2.4,3.3s0.2,3.5-2.3,3.5
			c-1.9,0-3.8,0.1-5.7,0s-1.9,1.4-1.9,2.8s0.3,2.4,2,2.3s3.8,0,5.7,0c1.7-0.1,2.4,0.6,2.4,2.3c0,4.3,0.1,4.3-4.2,4.3h-10
			c-3.3,0-3.5-0.1-3.5-3.6C258.5,215.2,258.5,211.4,258.5,207.6z"/>
		<path class="st1" d="M185,222.6c-8,0.1-13.5-3.6-15.7-10.3c-2.5-8.2,2.1-16.9,10.2-19.4l0.6-0.2c4.1-1.1,8.5-0.8,12.5,0.8
			c1.9,0.7,2.3,1.8,1.4,3.7c-2,3.7-1.9,3.8-5.7,2.5c-3.6-1.1-7.5,0.1-9.9,2.9c-2,2.7-2.2,6.3-0.5,9.2c2.1,3,5.7,4.6,9.3,4
			c0.7-0.1,1.5-0.3,2.2-0.6c2-1.1,3.1-0.4,4,1.6c1.7,3.5,0.9,5.2-3,5.8C188.5,222.7,186.7,222.7,185,222.6z"/>
		<path class="st1" d="M113.3,222.6H107c-1.5,0-2.3-0.5-2.3-2.1v-26c0-1.4,0.7-1.9,2-1.9h13.2c2.6,0,2,1.9,2.1,3.4s0.2,3.1-2.1,3.1
			c-2-0.1-4,0-6,0s-1.8,1.2-1.8,2.5s0,2.6,1.9,2.5s3.7,0,5.5,0c2.5,0,2.4,1.7,2.4,3.4s0,3.4-2.5,3.4c-1.8,0-3.5,0.1-5.2,0
			c-2.2,0-2,1.4-2.1,2.9s0.5,2.3,2.2,2.2s3.5,0.1,5.2,0c2.5-0.2,2.7,1.3,2.6,3.1s0.3,3.7-2.5,3.5
			C117.4,222.5,115.4,222.6,113.3,222.6z"/>
		<path class="st1" d="M125.2,193.4c4.6-2,8.2-1,10.5,2.7c1.1,1.7,2.2,3.3,3.7,5.4c1.3-1.9,2.4-3.4,3.4-5c2.6-4,5.4-5,10.6-3.2
			c-0.3,0.8-0.7,1.6-1.1,2.4c-2.3,3.5-4.9,6.9-7,10.6c-1,1.9-1.7,3.9-1.9,6c-0.2,2.6-0.2,5.1-0.1,7.7c0,1.9-0.6,2.9-2.8,2.9
			c-4.8,0-5.1,0.1-4.7-4.8c0.6-5.9-1.2-11.8-5.1-16.3C128.7,199,126.9,196.2,125.2,193.4z"/>
	</g>
</g>
</svg>
